<svg width="125" height="89" viewBox="0 0 125 89" fill="none" xmlns="http://www.w3.org/2000/svg">
<path d="M54.6435 45.9072C53.2493 46.8313 51.3922 45.8019 51.437 44.1298L52.235 14.3123C52.2765 12.7628 53.9462 11.8091 55.3019 12.5606L79.3676 25.9005C80.7233 26.652 80.7994 28.5733 79.5073 29.4296L54.6435 45.9072Z" fill="#E85D04"/>
<path opacity="0.62" d="M54.5007 38.6961C53.4494 39.4026 52.04 38.6214 52.082 37.3554L52.8379 14.5955C52.8764 13.4351 54.1279 12.7257 55.1432 13.2885L73.2884 23.3466C74.3038 23.9094 74.3653 25.3466 73.4017 25.9942L54.5007 38.6961Z" fill="#FAA307"/>
<path d="M0.415364 72.4248C0.34978 76.644 1.94565 81.0162 6.66768 81.4316C9.20359 81.6721 11.9581 80.5353 13.6851 78.1306V72.3373L9.57523 72.1406L9.75012 74.8514C6.42721 77.1905 3.8913 70.9819 6.77699 68.2056C7.84819 67.1562 9.75012 67.4185 10.4497 68.7302L13.4228 68.5335C12.7232 63.5272 7.89191 62.4342 4.78761 64.0738C2.40474 65.3417 0.480947 68.2493 0.415364 72.4248ZM14.7741 63.8552L15.5174 74.4579C16.1951 84.0112 28.2625 84.2517 28.9402 74.1081L29.596 63.9863L23.2563 64.7296L23.606 73.5834C23.7372 76.9719 20.7641 76.9063 20.8734 73.8676L21.1795 63.8989L14.7741 63.8552ZM38.9508 78.4803L39.8471 81.3442L45.7059 81.1037L39.5192 63.3086L34.3599 63.0682L28.5885 81.213L33.7696 81.6284L34.6222 78.2617L38.9508 78.4803ZM36.3274 70.1949L37.6172 74.2611L35.3874 74.4579L36.3274 70.1949ZM48.8119 64.511C46.5165 65.8008 45.336 68.9707 45.2267 72.1843C45.0736 77.2998 47.2597 81.6502 52.8562 81.6065C55.8075 81.5846 58.6932 80.0762 59.9611 75.5072L55.2828 74.436C54.7582 76.6877 53.1841 76.797 52.0692 75.9663C50.4515 74.7639 49.9705 70.1075 51.9599 68.3586C53.0967 67.3748 54.4958 67.7246 55.2391 69.4954L59.5676 68.4679C57.6001 62.4342 51.8287 62.8277 48.8119 64.511ZM69.8426 78.4803L70.7389 81.3442L76.5977 81.1037L70.411 63.3086L65.2517 63.0682L59.4804 81.213L64.6615 81.6284L65.5141 78.2617L69.8426 78.4803ZM67.2192 70.1949L68.5091 74.2611L66.2792 74.4579L67.2192 70.1949ZM85.4334 79.9232H85.5209L88.8656 73.8895L88.8875 80.9288L93.4784 81.1256L95.1398 64.0956L88.8219 63.6366L85.499 72.3373L82.8756 63.6366L76.5577 64.0956L78.1973 81.1256L82.8101 80.9288L82.8319 74.4579L85.4334 79.9232ZM98.8439 80.2292C103.347 83.6177 111.567 80.0981 110.605 71.3754C109.206 61.8221 101.97 62.6091 98.6472 64.8826C94.4061 67.7027 94.9745 77.2342 98.8439 80.2292ZM102.342 69.3423C102.954 68.4242 104.331 68.0962 104.593 72.0094C104.79 75.5947 103.216 77.0375 102.364 75.6384C101.642 74.4141 101.533 70.501 102.342 69.3423ZM123.497 76.797L117.266 77.431L118.556 64.0956L112.238 63.6366L112.304 80.9288C116.086 81.1037 119.824 81.2786 123.606 81.4972L123.497 76.797Z" fill="#E85D04"/>
</svg>
